<svg width="104" height="107" viewBox="0 0 104 107" fill="none" xmlns="http://www.w3.org/2000/svg">
<path d="M1.19995 45.5C0.499951 45.5 0 46 0 46.7C0 47.4 0.499951 48 1.19995 48C1.89995 48 2.5 47.4 2.5 46.7C2.5 46 1.89995 45.5 1.19995 45.5Z" fill="#0A165E" fill-opacity="0.2"/>
<path d="M1.19995 57.1001C0.499951 57.1001 0 57.7001 0 58.4001C0 59.1001 0.499951 59.7001 1.19995 59.7001C1.89995 59.7001 2.5 59.1001 2.5 58.4001C2.5 57.7001 1.89995 57.1001 1.19995 57.1001Z" fill="#0A165E" fill-opacity="0.2"/>
<path d="M15.6001 45.5C14.9001 45.5 14.4001 46 14.4001 46.7C14.4001 47.4 14.9001 48 15.6001 48C16.3001 48 16.9001 47.4 16.9001 46.7C16.9001 46 16.3001 45.5 15.6001 45.5Z" fill="#0A165E" fill-opacity="0.2"/>
<path d="M15.6001 57.1001C14.9001 57.1001 14.4001 57.7001 14.4001 58.4001C14.4001 59.1001 14.9001 59.7001 15.6001 59.7001C16.3001 59.7001 16.9001 59.1001 16.9001 58.4001C16.9001 57.7001 16.3001 57.1001 15.6001 57.1001Z" fill="#0A165E" fill-opacity="0.2"/>
<path d="M30 45.5C29.3 45.5 28.7 46 28.7 46.7C28.7 47.4 29.3 48 30 48C30.7 48 31.2999 47.4 31.2999 46.7C31.2999 46 30.7 45.5 30 45.5Z" fill="#0A165E" fill-opacity="0.2"/>
<path d="M30 57.1001C29.3 57.1001 28.7 57.7001 28.7 58.4001C28.7 59.1001 29.3 59.7001 30 59.7001C30.7 59.7001 31.2999 59.1001 31.2999 58.4001C31.2999 57.7001 30.7 57.1001 30 57.1001Z" fill="#0A165E" fill-opacity="0.2"/>
<path d="M45.2001 45.5C44.5001 45.5 43.9001 46 43.9001 46.7C43.9001 47.4 44.5001 48 45.2001 48C45.9001 48 46.4001 47.4 46.4001 46.7C46.4001 46 45.9001 45.5 45.2001 45.5Z" fill="#0A165E" fill-opacity="0.2"/>
<path d="M45.2001 57.1001C44.5001 57.1001 43.9001 57.7001 43.9001 58.4001C43.9001 59.1001 44.5001 59.7001 45.2001 59.7001C45.9001 59.7001 46.4001 59.1001 46.4001 58.4001C46.4001 57.7001 45.9001 57.1001 45.2001 57.1001Z" fill="#0A165E" fill-opacity="0.2"/>
<path d="M45.2001 68.8C44.5001 68.8 43.9001 69.3 43.9001 70.1C43.9001 70.8 44.5001 71.3 45.2001 71.3C45.9001 71.3 46.4001 70.8 46.4001 70.1C46.4001 69.3 45.9001 68.8 45.2001 68.8Z" fill="#0A165E" fill-opacity="0.2"/>
<path d="M45.2001 80.3999C44.5001 80.3999 43.9001 80.9999 43.9001 81.6999C43.9001 82.3999 44.5001 82.9999 45.2001 82.9999C45.9001 82.9999 46.4001 82.3999 46.4001 81.6999C46.4001 80.9999 45.9001 80.3999 45.2001 80.3999Z" fill="#0A165E" fill-opacity="0.2"/>
<path d="M45.2001 92.1001C44.5001 92.1001 43.9001 92.7001 43.9001 93.4001C43.9001 94.1001 44.5001 94.7001 45.2001 94.7001C45.9001 94.7001 46.4001 94.1001 46.4001 93.4001C46.4001 92.7001 45.9001 92.1001 45.2001 92.1001Z" fill="#0A165E" fill-opacity="0.2"/>
<path d="M45.2001 103.7C44.5001 103.7 43.9001 104.3 43.9001 105C43.9001 105.7 44.5001 106.3 45.2001 106.3C45.9001 106.3 46.4001 105.7 46.4001 105C46.4001 104.3 45.9001 103.7 45.2001 103.7Z" fill="#0A165E" fill-opacity="0.2"/>
<path d="M59.6001 45.5C58.9001 45.5 58.3 46 58.3 46.7C58.3 47.4 58.9001 48 59.6001 48C60.3001 48 60.8 47.4 60.8 46.7C60.8 46 60.3001 45.5 59.6001 45.5Z" fill="#0A165E" fill-opacity="0.2"/>
<path d="M59.6001 57.1001C58.9001 57.1001 58.3 57.7001 58.3 58.4001C58.3 59.1001 58.9001 59.7001 59.6001 59.7001C60.3001 59.7001 60.8 59.1001 60.8 58.4001C60.8 57.7001 60.3001 57.1001 59.6001 57.1001Z" fill="#0A165E" fill-opacity="0.2"/>
<path d="M59.6001 68.8C58.9001 68.8 58.3 69.3 58.3 70.1C58.3 70.8 58.9001 71.3 59.6001 71.3C60.3001 71.3 60.8 70.8 60.8 70.1C60.8 69.3 60.3001 68.8 59.6001 68.8Z" fill="#0A165E" fill-opacity="0.2"/>
<path d="M59.6001 80.3999C58.9001 80.3999 58.3 80.9999 58.3 81.6999C58.3 82.3999 58.9001 82.9999 59.6001 82.9999C60.3001 82.9999 60.8 82.3999 60.8 81.6999C60.8 80.9999 60.3001 80.3999 59.6001 80.3999Z" fill="#0A165E" fill-opacity="0.2"/>
<path d="M59.6001 92.1001C58.9001 92.1001 58.3 92.7001 58.3 93.4001C58.3 94.1001 58.9001 94.7001 59.6001 94.7001C60.3001 94.7001 60.8 94.1001 60.8 93.4001C60.8 92.7001 60.3001 92.1001 59.6001 92.1001Z" fill="#0A165E" fill-opacity="0.2"/>
<path d="M59.6001 103.7C58.9001 103.7 58.3 104.3 58.3 105C58.3 105.7 58.9001 106.3 59.6001 106.3C60.3001 106.3 60.8 105.7 60.8 105C60.8 104.3 60.3001 103.7 59.6001 103.7Z" fill="#0A165E" fill-opacity="0.2"/>
<path d="M74 45.5C73.3 45.5 72.7 46 72.7 46.7C72.7 47.4 73.3 48 74 48C74.7 48 75.2 47.4 75.2 46.7C75.2 46 74.7 45.5 74 45.5Z" fill="#0A165E" fill-opacity="0.2"/>
<path d="M74 57.1001C73.3 57.1001 72.7 57.7001 72.7 58.4001C72.7 59.1001 73.3 59.7001 74 59.7001C74.7 59.7001 75.2 59.1001 75.2 58.4001C75.2 57.7001 74.7 57.1001 74 57.1001Z" fill="#0A165E" fill-opacity="0.2"/>
<path d="M74 68.8C73.3 68.8 72.7 69.3 72.7 70.1C72.7 70.8 73.3 71.3 74 71.3C74.7 71.3 75.2 70.8 75.2 70.1C75.2 69.3 74.7 68.8 74 68.8Z" fill="#0A165E" fill-opacity="0.2"/>
<path d="M74 80.3999C73.3 80.3999 72.7 80.9999 72.7 81.6999C72.7 82.3999 73.3 82.9999 74 82.9999C74.7 82.9999 75.2 82.3999 75.2 81.6999C75.2 80.9999 74.7 80.3999 74 80.3999Z" fill="#0A165E" fill-opacity="0.2"/>
<path d="M88.2998 45.5C87.5998 45.5 87.0999 46 87.0999 46.7C87.0999 47.4 87.5998 48 88.2998 48C88.9998 48 89.5999 47.4 89.5999 46.7C89.5999 46 88.9998 45.5 88.2998 45.5Z" fill="#0A165E" fill-opacity="0.2"/>
<path d="M88.2998 57.1001C87.5998 57.1001 87.0999 57.7001 87.0999 58.4001C87.0999 59.1001 87.5998 59.7001 88.2998 59.7001C88.9998 59.7001 89.5999 59.1001 89.5999 58.4001C89.5999 57.7001 88.9998 57.1001 88.2998 57.1001Z" fill="#0A165E" fill-opacity="0.2"/>
<path d="M88.2998 68.8C87.5998 68.8 87.0999 69.3 87.0999 70.1C87.0999 70.8 87.5998 71.3 88.2998 71.3C88.9998 71.3 89.5999 70.8 89.5999 70.1C89.5999 69.3 88.9998 68.8 88.2998 68.8Z" fill="#0A165E" fill-opacity="0.2"/>
<path d="M88.2998 80.3999C87.5998 80.3999 87.0999 80.9999 87.0999 81.6999C87.0999 82.3999 87.5998 82.9999 88.2998 82.9999C88.9998 82.9999 89.5999 82.3999 89.5999 81.6999C89.5999 80.9999 88.9998 80.3999 88.2998 80.3999Z" fill="#0A165E" fill-opacity="0.2"/>
<path d="M102.7 45.5C102 45.5 101.5 46 101.5 46.7C101.5 47.4 102 48 102.7 48C103.4 48 104 47.4 104 46.7C104 46 103.4 45.5 102.7 45.5Z" fill="#0A165E" fill-opacity="0.2"/>
<path d="M102.7 57.1001C102 57.1001 101.5 57.7001 101.5 58.4001C101.5 59.1001 102 59.7001 102.7 59.7001C103.4 59.7001 104 59.1001 104 58.4001C104 57.7001 103.4 57.1001 102.7 57.1001Z" fill="#0A165E" fill-opacity="0.2"/>
<path d="M102.7 68.8C102 68.8 101.5 69.3 101.5 70.1C101.5 70.8 102 71.3 102.7 71.3C103.4 71.3 104 70.8 104 70.1C104 69.3 103.4 68.8 102.7 68.8Z" fill="#0A165E" fill-opacity="0.2"/>
<path d="M102.7 80.3999C102 80.3999 101.5 80.9999 101.5 81.6999C101.5 82.3999 102 82.9999 102.7 82.9999C103.4 82.9999 104 82.3999 104 81.6999C104 80.9999 103.4 80.3999 102.7 80.3999Z" fill="#0A165E" fill-opacity="0.2"/>
<path d="M1.19995 23.3C0.499951 23.3 0 23.9 0 24.6C0 25.3 0.499951 25.9001 1.19995 25.9001C1.89995 25.9001 2.5 25.3 2.5 24.6C2.5 23.9 1.89995 23.3 1.19995 23.3Z" fill="#0A165E" fill-opacity="0.2"/>
<path d="M1.19995 35C0.499951 35 0 35.5 0 36.3C0 37 0.499951 37.5 1.19995 37.5C1.89995 37.5 2.5 37 2.5 36.3C2.5 35.5 1.89995 35 1.19995 35Z" fill="#0A165E" fill-opacity="0.2"/>
<path d="M15.6001 23.3C14.9001 23.3 14.4001 23.9 14.4001 24.6C14.4001 25.3 14.9001 25.9001 15.6001 25.9001C16.3001 25.9001 16.9001 25.3 16.9001 24.6C16.9001 23.9 16.3001 23.3 15.6001 23.3Z" fill="#0A165E" fill-opacity="0.2"/>
<path d="M15.6001 35C14.9001 35 14.4001 35.5 14.4001 36.3C14.4001 37 14.9001 37.5 15.6001 37.5C16.3001 37.5 16.9001 37 16.9001 36.3C16.9001 35.5 16.3001 35 15.6001 35Z" fill="#0A165E" fill-opacity="0.2"/>
<path d="M30 0C29.3 0 28.7 0.600003 28.7 1.3C28.7 2 29.3 2.59999 30 2.59999C30.7 2.59999 31.2999 2 31.2999 1.3C31.2999 0.600003 30.7 0 30 0Z" fill="#0A165E" fill-opacity="0.2"/>
<path d="M30 11.7C29.3 11.7 28.7 12.1999 28.7 12.8999C28.7 13.5999 29.3 14.2 30 14.2C30.7 14.2 31.2999 13.5999 31.2999 12.8999C31.2999 12.1999 30.7 11.7 30 11.7Z" fill="#0A165E" fill-opacity="0.2"/>
<path d="M30 23.3C29.3 23.3 28.7 23.9 28.7 24.6C28.7 25.3 29.3 25.9001 30 25.9001C30.7 25.9001 31.2999 25.3 31.2999 24.6C31.2999 23.9 30.7 23.3 30 23.3Z" fill="#0A165E" fill-opacity="0.2"/>
<path d="M30 35C29.3 35 28.7 35.5 28.7 36.3C28.7 37 29.3 37.5 30 37.5C30.7 37.5 31.2999 37 31.2999 36.3C31.2999 35.5 30.7 35 30 35Z" fill="#0A165E" fill-opacity="0.2"/>
<path d="M45.2001 35C44.5001 35 43.9001 35.5 43.9001 36.3C43.9001 37 44.5001 37.5 45.2001 37.5C45.9001 37.5 46.4001 37 46.4001 36.3C46.4001 35.5 45.9001 35 45.2001 35Z" fill="#0A165E" fill-opacity="0.2"/>
<path d="M59.6001 35C58.9001 35 58.3 35.5 58.3 36.3C58.3 37 58.9001 37.5 59.6001 37.5C60.3001 37.5 60.8 37 60.8 36.3C60.8 35.5 60.3001 35 59.6001 35Z" fill="#0A165E" fill-opacity="0.2"/>
<path d="M74 35C73.3 35 72.7 35.5 72.7 36.3C72.7 37 73.3 37.5 74 37.5C74.7 37.5 75.2 37 75.2 36.3C75.2 35.5 74.7 35 74 35Z" fill="#0A165E" fill-opacity="0.2"/>
<path d="M88.2998 35C87.5998 35 87.0999 35.5 87.0999 36.3C87.0999 37 87.5998 37.5 88.2998 37.5C88.9998 37.5 89.5999 37 89.5999 36.3C89.5999 35.5 88.9998 35 88.2998 35Z" fill="#0A165E" fill-opacity="0.2"/>
<path d="M102.7 35C102 35 101.5 35.5 101.5 36.3C101.5 37 102 37.5 102.7 37.5C103.4 37.5 104 37 104 36.3C104 35.5 103.4 35 102.7 35Z" fill="#0A165E" fill-opacity="0.2"/>
<path d="M1.19995 45.5C0.499951 45.5 0 46 0 46.7C0 47.4 0.499951 48 1.19995 48C1.89995 48 2.5 47.4 2.5 46.7C2.5 46 1.89995 45.5 1.19995 45.5Z" fill="#0A165E" fill-opacity="0.4"/>
<path d="M1.19995 57.1001C0.499951 57.1001 0 57.7001 0 58.4001C0 59.1001 0.499951 59.7001 1.19995 59.7001C1.89995 59.7001 2.5 59.1001 2.5 58.4001C2.5 57.7001 1.89995 57.1001 1.19995 57.1001Z" fill="#0A165E" fill-opacity="0.4"/>
<path d="M15.6001 45.5C14.9001 45.5 14.4001 46 14.4001 46.7C14.4001 47.4 14.9001 48 15.6001 48C16.3001 48 16.9001 47.4 16.9001 46.7C16.9001 46 16.3001 45.5 15.6001 45.5Z" fill="#0A165E" fill-opacity="0.4"/>
<path d="M15.6001 57.1001C14.9001 57.1001 14.4001 57.7001 14.4001 58.4001C14.4001 59.1001 14.9001 59.7001 15.6001 59.7001C16.3001 59.7001 16.9001 59.1001 16.9001 58.4001C16.9001 57.7001 16.3001 57.1001 15.6001 57.1001Z" fill="#0A165E" fill-opacity="0.4"/>
<path d="M30 45.5C29.3 45.5 28.7 46 28.7 46.7C28.7 47.4 29.3 48 30 48C30.7 48 31.2999 47.4 31.2999 46.7C31.2999 46 30.7 45.5 30 45.5Z" fill="#0A165E" fill-opacity="0.4"/>
<path d="M30 57.1001C29.3 57.1001 28.7 57.7001 28.7 58.4001C28.7 59.1001 29.3 59.7001 30 59.7001C30.7 59.7001 31.2999 59.1001 31.2999 58.4001C31.2999 57.7001 30.7 57.1001 30 57.1001Z" fill="#0A165E" fill-opacity="0.4"/>
<path d="M45.2001 45.5C44.5001 45.5 43.9001 46 43.9001 46.7C43.9001 47.4 44.5001 48 45.2001 48C45.9001 48 46.4001 47.4 46.4001 46.7C46.4001 46 45.9001 45.5 45.2001 45.5Z" fill="#0A165E" fill-opacity="0.4"/>
<path d="M45.2001 57.1001C44.5001 57.1001 43.9001 57.7001 43.9001 58.4001C43.9001 59.1001 44.5001 59.7001 45.2001 59.7001C45.9001 59.7001 46.4001 59.1001 46.4001 58.4001C46.4001 57.7001 45.9001 57.1001 45.2001 57.1001Z" fill="#0A165E" fill-opacity="0.4"/>
<path d="M45.2001 68.8C44.5001 68.8 43.9001 69.3 43.9001 70.1C43.9001 70.8 44.5001 71.3 45.2001 71.3C45.9001 71.3 46.4001 70.8 46.4001 70.1C46.4001 69.3 45.9001 68.8 45.2001 68.8Z" fill="#0A165E" fill-opacity="0.4"/>
<path d="M45.2001 80.3999C44.5001 80.3999 43.9001 80.9999 43.9001 81.6999C43.9001 82.3999 44.5001 82.9999 45.2001 82.9999C45.9001 82.9999 46.4001 82.3999 46.4001 81.6999C46.4001 80.9999 45.9001 80.3999 45.2001 80.3999Z" fill="#0A165E" fill-opacity="0.4"/>
<path d="M45.2001 92.1001C44.5001 92.1001 43.9001 92.7001 43.9001 93.4001C43.9001 94.1001 44.5001 94.7001 45.2001 94.7001C45.9001 94.7001 46.4001 94.1001 46.4001 93.4001C46.4001 92.7001 45.9001 92.1001 45.2001 92.1001Z" fill="#0A165E" fill-opacity="0.4"/>
<path d="M45.2001 103.7C44.5001 103.7 43.9001 104.3 43.9001 105C43.9001 105.7 44.5001 106.3 45.2001 106.3C45.9001 106.3 46.4001 105.7 46.4001 105C46.4001 104.3 45.9001 103.7 45.2001 103.7Z" fill="#0A165E" fill-opacity="0.4"/>
<path d="M59.6001 45.5C58.9001 45.5 58.3 46 58.3 46.7C58.3 47.4 58.9001 48 59.6001 48C60.3001 48 60.8 47.4 60.8 46.7C60.8 46 60.3001 45.5 59.6001 45.5Z" fill="#0A165E" fill-opacity="0.4"/>
<path d="M59.6001 57.1001C58.9001 57.1001 58.3 57.7001 58.3 58.4001C58.3 59.1001 58.9001 59.7001 59.6001 59.7001C60.3001 59.7001 60.8 59.1001 60.8 58.4001C60.8 57.7001 60.3001 57.1001 59.6001 57.1001Z" fill="#0A165E" fill-opacity="0.4"/>
<path d="M59.6001 68.8C58.9001 68.8 58.3 69.3 58.3 70.1C58.3 70.8 58.9001 71.3 59.6001 71.3C60.3001 71.3 60.8 70.8 60.8 70.1C60.8 69.3 60.3001 68.8 59.6001 68.8Z" fill="#0A165E" fill-opacity="0.4"/>
<path d="M59.6001 80.3999C58.9001 80.3999 58.3 80.9999 58.3 81.6999C58.3 82.3999 58.9001 82.9999 59.6001 82.9999C60.3001 82.9999 60.8 82.3999 60.8 81.6999C60.8 80.9999 60.3001 80.3999 59.6001 80.3999Z" fill="#0A165E" fill-opacity="0.4"/>
<path d="M59.6001 92.1001C58.9001 92.1001 58.3 92.7001 58.3 93.4001C58.3 94.1001 58.9001 94.7001 59.6001 94.7001C60.3001 94.7001 60.8 94.1001 60.8 93.4001C60.8 92.7001 60.3001 92.1001 59.6001 92.1001Z" fill="#0A165E" fill-opacity="0.4"/>
<path d="M59.6001 103.7C58.9001 103.7 58.3 104.3 58.3 105C58.3 105.7 58.9001 106.3 59.6001 106.3C60.3001 106.3 60.8 105.7 60.8 105C60.8 104.3 60.3001 103.7 59.6001 103.7Z" fill="#0A165E" fill-opacity="0.4"/>
<path d="M74 45.5C73.3 45.5 72.7 46 72.7 46.7C72.7 47.4 73.3 48 74 48C74.7 48 75.2 47.4 75.2 46.7C75.2 46 74.7 45.5 74 45.5Z" fill="#0A165E" fill-opacity="0.4"/>
<path d="M74 57.1001C73.3 57.1001 72.7 57.7001 72.7 58.4001C72.7 59.1001 73.3 59.7001 74 59.7001C74.7 59.7001 75.2 59.1001 75.2 58.4001C75.2 57.7001 74.7 57.1001 74 57.1001Z" fill="#0A165E" fill-opacity="0.4"/>
<path d="M74 68.8C73.3 68.8 72.7 69.3 72.7 70.1C72.7 70.8 73.3 71.3 74 71.3C74.7 71.3 75.2 70.8 75.2 70.1C75.2 69.3 74.7 68.8 74 68.8Z" fill="#0A165E" fill-opacity="0.4"/>
<path d="M74 80.3999C73.3 80.3999 72.7 80.9999 72.7 81.6999C72.7 82.3999 73.3 82.9999 74 82.9999C74.7 82.9999 75.2 82.3999 75.2 81.6999C75.2 80.9999 74.7 80.3999 74 80.3999Z" fill="#0A165E" fill-opacity="0.4"/>
<path d="M30 0C29.3 0 28.7 0.600003 28.7 1.3C28.7 2 29.3 2.59999 30 2.59999C30.7 2.59999 31.2999 2 31.2999 1.3C31.2999 0.600003 30.7 0 30 0Z" fill="#0A165E" fill-opacity="0.4"/>
<path d="M45.2001 35C44.5001 35 43.9001 35.5 43.9001 36.3C43.9001 37 44.5001 37.5 45.2001 37.5C45.9001 37.5 46.4001 37 46.4001 36.3C46.4001 35.5 45.9001 35 45.2001 35Z" fill="#0A165E" fill-opacity="0.4"/>
<path d="M59.6001 35C58.9001 35 58.3 35.5 58.3 36.3C58.3 37 58.9001 37.5 59.6001 37.5C60.3001 37.5 60.8 37 60.8 36.3C60.8 35.5 60.3001 35 59.6001 35Z" fill="#0A165E" fill-opacity="0.4"/>
<path d="M74 35C73.3 35 72.7 35.5 72.7 36.3C72.7 37 73.3 37.5 74 37.5C74.7 37.5 75.2 37 75.2 36.3C75.2 35.5 74.7 35 74 35Z" fill="#0A165E" fill-opacity="0.4"/>
<path d="M88.2998 35C87.5998 35 87.0999 35.5 87.0999 36.3C87.0999 37 87.5998 37.5 88.2998 37.5C88.9998 37.5 89.5999 37 89.5999 36.3C89.5999 35.5 88.9998 35 88.2998 35Z" fill="#0A165E" fill-opacity="0.4"/>
<path d="M102.7 35C102 35 101.5 35.5 101.5 36.3C101.5 37 102 37.5 102.7 37.5C103.4 37.5 104 37 104 36.3C104 35.5 103.4 35 102.7 35Z" fill="#0A165E" fill-opacity="0.4"/>
</svg>
