<svg width="104" height="119" viewBox="0 0 104 119" fill="none" xmlns="http://www.w3.org/2000/svg">
<path d="M1.19995 45.5C0.499951 45.5 0 46 0 46.7C0 47.4 0.499951 48 1.19995 48C1.89995 48 2.5 47.4 2.5 46.7C2.5 46 1.89995 45.5 1.19995 45.5Z" fill="white" fill-opacity="0.08"/>
<path d="M1.19995 57.1C0.499951 57.1 0 57.7 0 58.4C0 59.1 0.499951 59.7 1.19995 59.7C1.89995 59.7 2.5 59.1 2.5 58.4C2.5 57.7 1.89995 57.1 1.19995 57.1Z" fill="white" fill-opacity="0.08"/>
<path d="M15.5999 45.5C14.8999 45.5 14.3999 46 14.3999 46.7C14.3999 47.4 14.8999 48 15.5999 48C16.2999 48 16.8999 47.4 16.8999 46.7C16.8999 46 16.2999 45.5 15.5999 45.5Z" fill="white" fill-opacity="0.08"/>
<path d="M15.5999 57.1C14.8999 57.1 14.3999 57.7 14.3999 58.4C14.3999 59.1 14.8999 59.7 15.5999 59.7C16.2999 59.7 16.8999 59.1 16.8999 58.4C16.8999 57.7 16.2999 57.1 15.5999 57.1Z" fill="white" fill-opacity="0.08"/>
<path d="M30.0002 45.5C29.3002 45.5 28.7002 46 28.7002 46.7C28.7002 47.4 29.3002 48 30.0002 48C30.7002 48 31.3002 47.4 31.3002 46.7C31.3002 46 30.7002 45.5 30.0002 45.5Z" fill="white" fill-opacity="0.08"/>
<path d="M30.0002 57.1C29.3002 57.1 28.7002 57.7 28.7002 58.4C28.7002 59.1 29.3002 59.7 30.0002 59.7C30.7002 59.7 31.3002 59.1 31.3002 58.4C31.3002 57.7 30.7002 57.1 30.0002 57.1Z" fill="white" fill-opacity="0.08"/>
<path d="M45.1998 115.5C44.4998 115.5 43.8999 116.1 43.8999 116.8C43.8999 117.5 44.4998 118.1 45.1998 118.1C45.8998 118.1 46.3999 117.5 46.3999 116.8C46.3999 116.1 45.8998 115.5 45.1998 115.5Z" fill="white" fill-opacity="0.08"/>
<path d="M59.5999 115.5C58.8999 115.5 58.2998 116.1 58.2998 116.8C58.2998 117.5 58.8999 118.1 59.5999 118.1C60.2999 118.1 60.7998 117.5 60.7998 116.8C60.7998 116.1 60.2999 115.5 59.5999 115.5Z" fill="white" fill-opacity="0.08"/>
<path d="M45.1998 45.5C44.4998 45.5 43.8999 46 43.8999 46.7C43.8999 47.4 44.4998 48 45.1998 48C45.8998 48 46.3999 47.4 46.3999 46.7C46.3999 46 45.8998 45.5 45.1998 45.5Z" fill="white" fill-opacity="0.08"/>
<path d="M45.1998 57.1C44.4998 57.1 43.8999 57.7 43.8999 58.4C43.8999 59.1 44.4998 59.7 45.1998 59.7C45.8998 59.7 46.3999 59.1 46.3999 58.4C46.3999 57.7 45.8998 57.1 45.1998 57.1Z" fill="white" fill-opacity="0.08"/>
<path d="M45.1998 68.8C44.4998 68.8 43.8999 69.3 43.8999 70.1C43.8999 70.8 44.4998 71.3 45.1998 71.3C45.8998 71.3 46.3999 70.8 46.3999 70.1C46.3999 69.3 45.8998 68.8 45.1998 68.8Z" fill="white" fill-opacity="0.08"/>
<path d="M45.1998 80.4C44.4998 80.4 43.8999 81 43.8999 81.7C43.8999 82.4 44.4998 83 45.1998 83C45.8998 83 46.3999 82.4 46.3999 81.7C46.3999 81 45.8998 80.4 45.1998 80.4Z" fill="white" fill-opacity="0.08"/>
<path d="M45.1998 92.1C44.4998 92.1 43.8999 92.7 43.8999 93.4C43.8999 94.1 44.4998 94.7 45.1998 94.7C45.8998 94.7 46.3999 94.1 46.3999 93.4C46.3999 92.7 45.8998 92.1 45.1998 92.1Z" fill="white" fill-opacity="0.08"/>
<path d="M45.1998 103.7C44.4998 103.7 43.8999 104.3 43.8999 105C43.8999 105.7 44.4998 106.3 45.1998 106.3C45.8998 106.3 46.3999 105.7 46.3999 105C46.3999 104.3 45.8998 103.7 45.1998 103.7Z" fill="white" fill-opacity="0.08"/>
<path d="M59.5999 45.5C58.8999 45.5 58.2998 46 58.2998 46.7C58.2998 47.4 58.8999 48 59.5999 48C60.2999 48 60.7998 47.4 60.7998 46.7C60.7998 46 60.2999 45.5 59.5999 45.5Z" fill="white" fill-opacity="0.08"/>
<path d="M59.5999 57.1C58.8999 57.1 58.2998 57.7 58.2998 58.4C58.2998 59.1 58.8999 59.7 59.5999 59.7C60.2999 59.7 60.7998 59.1 60.7998 58.4C60.7998 57.7 60.2999 57.1 59.5999 57.1Z" fill="white" fill-opacity="0.08"/>
<path d="M59.5999 68.8C58.8999 68.8 58.2998 69.3 58.2998 70.1C58.2998 70.8 58.8999 71.3 59.5999 71.3C60.2999 71.3 60.7998 70.8 60.7998 70.1C60.7998 69.3 60.2999 68.8 59.5999 68.8Z" fill="white" fill-opacity="0.08"/>
<path d="M59.5999 80.4C58.8999 80.4 58.2998 81 58.2998 81.7C58.2998 82.4 58.8999 83 59.5999 83C60.2999 83 60.7998 82.4 60.7998 81.7C60.7998 81 60.2999 80.4 59.5999 80.4Z" fill="white" fill-opacity="0.08"/>
<path d="M59.5999 92.1C58.8999 92.1 58.2998 92.7 58.2998 93.4C58.2998 94.1 58.8999 94.7 59.5999 94.7C60.2999 94.7 60.7998 94.1 60.7998 93.4C60.7998 92.7 60.2999 92.1 59.5999 92.1Z" fill="white" fill-opacity="0.08"/>
<path d="M59.5999 103.7C58.8999 103.7 58.2998 104.3 58.2998 105C58.2998 105.7 58.8999 106.3 59.5999 106.3C60.2999 106.3 60.7998 105.7 60.7998 105C60.7998 104.3 60.2999 103.7 59.5999 103.7Z" fill="white" fill-opacity="0.08"/>
<path d="M74.0002 45.5C73.3002 45.5 72.7002 46 72.7002 46.7C72.7002 47.4 73.3002 48 74.0002 48C74.7002 48 75.2002 47.4 75.2002 46.7C75.2002 46 74.7002 45.5 74.0002 45.5Z" fill="white" fill-opacity="0.08"/>
<path d="M74.0002 57.1C73.3002 57.1 72.7002 57.7 72.7002 58.4C72.7002 59.1 73.3002 59.7 74.0002 59.7C74.7002 59.7 75.2002 59.1 75.2002 58.4C75.2002 57.7 74.7002 57.1 74.0002 57.1Z" fill="white" fill-opacity="0.08"/>
<path d="M74.0002 68.8C73.3002 68.8 72.7002 69.3 72.7002 70.1C72.7002 70.8 73.3002 71.3 74.0002 71.3C74.7002 71.3 75.2002 70.8 75.2002 70.1C75.2002 69.3 74.7002 68.8 74.0002 68.8Z" fill="white" fill-opacity="0.08"/>
<path d="M74.0002 80.4C73.3002 80.4 72.7002 81 72.7002 81.7C72.7002 82.4 73.3002 83 74.0002 83C74.7002 83 75.2002 82.4 75.2002 81.7C75.2002 81 74.7002 80.4 74.0002 80.4Z" fill="white" fill-opacity="0.08"/>
<path d="M88.3 45.5C87.6 45.5 87.1001 46 87.1001 46.7C87.1001 47.4 87.6 48 88.3 48C89 48 89.6001 47.4 89.6001 46.7C89.6001 46 89 45.5 88.3 45.5Z" fill="white" fill-opacity="0.08"/>
<path d="M88.3 57.1C87.6 57.1 87.1001 57.7 87.1001 58.4C87.1001 59.1 87.6 59.7 88.3 59.7C89 59.7 89.6001 59.1 89.6001 58.4C89.6001 57.7 89 57.1 88.3 57.1Z" fill="white" fill-opacity="0.08"/>
<path d="M88.3 68.8C87.6 68.8 87.1001 69.3 87.1001 70.1C87.1001 70.8 87.6 71.3 88.3 71.3C89 71.3 89.6001 70.8 89.6001 70.1C89.6001 69.3 89 68.8 88.3 68.8Z" fill="white" fill-opacity="0.08"/>
<path d="M88.3 80.4C87.6 80.4 87.1001 81 87.1001 81.7C87.1001 82.4 87.6 83 88.3 83C89 83 89.6001 82.4 89.6001 81.7C89.6001 81 89 80.4 88.3 80.4Z" fill="white" fill-opacity="0.08"/>
<path d="M102.7 45.5C102 45.5 101.5 46 101.5 46.7C101.5 47.4 102 48 102.7 48C103.4 48 104 47.4 104 46.7C104 46 103.4 45.5 102.7 45.5Z" fill="white" fill-opacity="0.08"/>
<path d="M102.7 57.1C102 57.1 101.5 57.7 101.5 58.4C101.5 59.1 102 59.7 102.7 59.7C103.4 59.7 104 59.1 104 58.4C104 57.7 103.4 57.1 102.7 57.1Z" fill="white" fill-opacity="0.08"/>
<path d="M102.7 68.8C102 68.8 101.5 69.3 101.5 70.1C101.5 70.8 102 71.3 102.7 71.3C103.4 71.3 104 70.8 104 70.1C104 69.3 103.4 68.8 102.7 68.8Z" fill="white" fill-opacity="0.08"/>
<path d="M102.7 80.4C102 80.4 101.5 81 101.5 81.7C101.5 82.4 102 83 102.7 83C103.4 83 104 82.4 104 81.7C104 81 103.4 80.4 102.7 80.4Z" fill="white" fill-opacity="0.08"/>
<path d="M1.19995 23.3C0.499951 23.3 0 23.9 0 24.6C0 25.3 0.499951 25.9 1.19995 25.9C1.89995 25.9 2.5 25.3 2.5 24.6C2.5 23.9 1.89995 23.3 1.19995 23.3Z" fill="white" fill-opacity="0.08"/>
<path d="M1.19995 35C0.499951 35 0 35.5 0 36.3C0 37 0.499951 37.5 1.19995 37.5C1.89995 37.5 2.5 37 2.5 36.3C2.5 35.5 1.89995 35 1.19995 35Z" fill="white" fill-opacity="0.08"/>
<path d="M15.5999 23.3C14.8999 23.3 14.3999 23.9 14.3999 24.6C14.3999 25.3 14.8999 25.9 15.5999 25.9C16.2999 25.9 16.8999 25.3 16.8999 24.6C16.8999 23.9 16.2999 23.3 15.5999 23.3Z" fill="white" fill-opacity="0.08"/>
<path d="M15.5999 35C14.8999 35 14.3999 35.5 14.3999 36.3C14.3999 37 14.8999 37.5 15.5999 37.5C16.2999 37.5 16.8999 37 16.8999 36.3C16.8999 35.5 16.2999 35 15.5999 35Z" fill="white" fill-opacity="0.08"/>
<path d="M30.0002 0C29.3002 0 28.7002 0.600003 28.7002 1.3C28.7002 2 29.3002 2.59999 30.0002 2.59999C30.7002 2.59999 31.3002 2 31.3002 1.3C31.3002 0.600003 30.7002 0 30.0002 0Z" fill="white" fill-opacity="0.08"/>
<path d="M30.0002 11.7C29.3002 11.7 28.7002 12.2 28.7002 12.9C28.7002 13.6 29.3002 14.2 30.0002 14.2C30.7002 14.2 31.3002 13.6 31.3002 12.9C31.3002 12.2 30.7002 11.7 30.0002 11.7Z" fill="white" fill-opacity="0.08"/>
<path d="M30.0002 23.3C29.3002 23.3 28.7002 23.9 28.7002 24.6C28.7002 25.3 29.3002 25.9 30.0002 25.9C30.7002 25.9 31.3002 25.3 31.3002 24.6C31.3002 23.9 30.7002 23.3 30.0002 23.3Z" fill="white" fill-opacity="0.08"/>
<path d="M30.0002 35C29.3002 35 28.7002 35.5 28.7002 36.3C28.7002 37 29.3002 37.5 30.0002 37.5C30.7002 37.5 31.3002 37 31.3002 36.3C31.3002 35.5 30.7002 35 30.0002 35Z" fill="white" fill-opacity="0.08"/>
<path d="M45.1998 35C44.4998 35 43.8999 35.5 43.8999 36.3C43.8999 37 44.4998 37.5 45.1998 37.5C45.8998 37.5 46.3999 37 46.3999 36.3C46.3999 35.5 45.8998 35 45.1998 35Z" fill="white" fill-opacity="0.08"/>
<path d="M59.5999 35C58.8999 35 58.2998 35.5 58.2998 36.3C58.2998 37 58.8999 37.5 59.5999 37.5C60.2999 37.5 60.7998 37 60.7998 36.3C60.7998 35.5 60.2999 35 59.5999 35Z" fill="white" fill-opacity="0.08"/>
<path d="M74.0002 35C73.3002 35 72.7002 35.5 72.7002 36.3C72.7002 37 73.3002 37.5 74.0002 37.5C74.7002 37.5 75.2002 37 75.2002 36.3C75.2002 35.5 74.7002 35 74.0002 35Z" fill="white" fill-opacity="0.08"/>
<path d="M88.3 35C87.6 35 87.1001 35.5 87.1001 36.3C87.1001 37 87.6 37.5 88.3 37.5C89 37.5 89.6001 37 89.6001 36.3C89.6001 35.5 89 35 88.3 35Z" fill="white" fill-opacity="0.08"/>
<path d="M102.7 35C102 35 101.5 35.5 101.5 36.3C101.5 37 102 37.5 102.7 37.5C103.4 37.5 104 37 104 36.3C104 35.5 103.4 35 102.7 35Z" fill="white" fill-opacity="0.08"/>
<path d="M1.19995 45.5C0.499951 45.5 0 46 0 46.7C0 47.4 0.499951 48 1.19995 48C1.89995 48 2.5 47.4 2.5 46.7C2.5 46 1.89995 45.5 1.19995 45.5Z" fill="white" fill-opacity="0.1"/>
<path d="M1.19995 57.1C0.499951 57.1 0 57.7 0 58.4C0 59.1 0.499951 59.7 1.19995 59.7C1.89995 59.7 2.5 59.1 2.5 58.4C2.5 57.7 1.89995 57.1 1.19995 57.1Z" fill="white" fill-opacity="0.1"/>
<path d="M15.5999 45.5C14.8999 45.5 14.3999 46 14.3999 46.7C14.3999 47.4 14.8999 48 15.5999 48C16.2999 48 16.8999 47.4 16.8999 46.7C16.8999 46 16.2999 45.5 15.5999 45.5Z" fill="white" fill-opacity="0.1"/>
<path d="M15.5999 57.1C14.8999 57.1 14.3999 57.7 14.3999 58.4C14.3999 59.1 14.8999 59.7 15.5999 59.7C16.2999 59.7 16.8999 59.1 16.8999 58.4C16.8999 57.7 16.2999 57.1 15.5999 57.1Z" fill="white" fill-opacity="0.1"/>
<path d="M30.0002 45.5C29.3002 45.5 28.7002 46 28.7002 46.7C28.7002 47.4 29.3002 48 30.0002 48C30.7002 48 31.3002 47.4 31.3002 46.7C31.3002 46 30.7002 45.5 30.0002 45.5Z" fill="white" fill-opacity="0.1"/>
<path d="M30.0002 57.1C29.3002 57.1 28.7002 57.7 28.7002 58.4C28.7002 59.1 29.3002 59.7 30.0002 59.7C30.7002 59.7 31.3002 59.1 31.3002 58.4C31.3002 57.7 30.7002 57.1 30.0002 57.1Z" fill="white" fill-opacity="0.1"/>
<path d="M45.1998 115.5C44.4998 115.5 43.8999 116.1 43.8999 116.8C43.8999 117.5 44.4998 118.1 45.1998 118.1C45.8998 118.1 46.3999 117.5 46.3999 116.8C46.3999 116.1 45.8998 115.5 45.1998 115.5Z" fill="white" fill-opacity="0.1"/>
<path d="M59.5999 115.5C58.8999 115.5 58.2998 116.1 58.2998 116.8C58.2998 117.5 58.8999 118.1 59.5999 118.1C60.2999 118.1 60.7998 117.5 60.7998 116.8C60.7998 116.1 60.2999 115.5 59.5999 115.5Z" fill="white" fill-opacity="0.1"/>
<path d="M45.1998 45.5C44.4998 45.5 43.8999 46 43.8999 46.7C43.8999 47.4 44.4998 48 45.1998 48C45.8998 48 46.3999 47.4 46.3999 46.7C46.3999 46 45.8998 45.5 45.1998 45.5Z" fill="white" fill-opacity="0.1"/>
<path d="M45.1998 57.1C44.4998 57.1 43.8999 57.7 43.8999 58.4C43.8999 59.1 44.4998 59.7 45.1998 59.7C45.8998 59.7 46.3999 59.1 46.3999 58.4C46.3999 57.7 45.8998 57.1 45.1998 57.1Z" fill="white" fill-opacity="0.1"/>
<path d="M45.1998 68.8C44.4998 68.8 43.8999 69.3 43.8999 70.1C43.8999 70.8 44.4998 71.3 45.1998 71.3C45.8998 71.3 46.3999 70.8 46.3999 70.1C46.3999 69.3 45.8998 68.8 45.1998 68.8Z" fill="white" fill-opacity="0.1"/>
<path d="M45.1998 80.4C44.4998 80.4 43.8999 81 43.8999 81.7C43.8999 82.4 44.4998 83 45.1998 83C45.8998 83 46.3999 82.4 46.3999 81.7C46.3999 81 45.8998 80.4 45.1998 80.4Z" fill="white" fill-opacity="0.1"/>
<path d="M45.1998 92.1C44.4998 92.1 43.8999 92.7 43.8999 93.4C43.8999 94.1 44.4998 94.7 45.1998 94.7C45.8998 94.7 46.3999 94.1 46.3999 93.4C46.3999 92.7 45.8998 92.1 45.1998 92.1Z" fill="white" fill-opacity="0.1"/>
<path d="M45.1998 103.7C44.4998 103.7 43.8999 104.3 43.8999 105C43.8999 105.7 44.4998 106.3 45.1998 106.3C45.8998 106.3 46.3999 105.7 46.3999 105C46.3999 104.3 45.8998 103.7 45.1998 103.7Z" fill="white" fill-opacity="0.1"/>
<path d="M59.5999 45.5C58.8999 45.5 58.2998 46 58.2998 46.7C58.2998 47.4 58.8999 48 59.5999 48C60.2999 48 60.7998 47.4 60.7998 46.7C60.7998 46 60.2999 45.5 59.5999 45.5Z" fill="white" fill-opacity="0.1"/>
<path d="M59.5999 57.1C58.8999 57.1 58.2998 57.7 58.2998 58.4C58.2998 59.1 58.8999 59.7 59.5999 59.7C60.2999 59.7 60.7998 59.1 60.7998 58.4C60.7998 57.7 60.2999 57.1 59.5999 57.1Z" fill="white" fill-opacity="0.1"/>
<path d="M59.5999 68.8C58.8999 68.8 58.2998 69.3 58.2998 70.1C58.2998 70.8 58.8999 71.3 59.5999 71.3C60.2999 71.3 60.7998 70.8 60.7998 70.1C60.7998 69.3 60.2999 68.8 59.5999 68.8Z" fill="white" fill-opacity="0.1"/>
<path d="M59.5999 80.4C58.8999 80.4 58.2998 81 58.2998 81.7C58.2998 82.4 58.8999 83 59.5999 83C60.2999 83 60.7998 82.4 60.7998 81.7C60.7998 81 60.2999 80.4 59.5999 80.4Z" fill="white" fill-opacity="0.1"/>
<path d="M59.5999 92.1C58.8999 92.1 58.2998 92.7 58.2998 93.4C58.2998 94.1 58.8999 94.7 59.5999 94.7C60.2999 94.7 60.7998 94.1 60.7998 93.4C60.7998 92.7 60.2999 92.1 59.5999 92.1Z" fill="white" fill-opacity="0.1"/>
<path d="M59.5999 103.7C58.8999 103.7 58.2998 104.3 58.2998 105C58.2998 105.7 58.8999 106.3 59.5999 106.3C60.2999 106.3 60.7998 105.7 60.7998 105C60.7998 104.3 60.2999 103.7 59.5999 103.7Z" fill="white" fill-opacity="0.1"/>
<path d="M74.0002 45.5C73.3002 45.5 72.7002 46 72.7002 46.7C72.7002 47.4 73.3002 48 74.0002 48C74.7002 48 75.2002 47.4 75.2002 46.7C75.2002 46 74.7002 45.5 74.0002 45.5Z" fill="white" fill-opacity="0.1"/>
<path d="M74.0002 57.1C73.3002 57.1 72.7002 57.7 72.7002 58.4C72.7002 59.1 73.3002 59.7 74.0002 59.7C74.7002 59.7 75.2002 59.1 75.2002 58.4C75.2002 57.7 74.7002 57.1 74.0002 57.1Z" fill="white" fill-opacity="0.1"/>
<path d="M74.0002 68.8C73.3002 68.8 72.7002 69.3 72.7002 70.1C72.7002 70.8 73.3002 71.3 74.0002 71.3C74.7002 71.3 75.2002 70.8 75.2002 70.1C75.2002 69.3 74.7002 68.8 74.0002 68.8Z" fill="white" fill-opacity="0.1"/>
<path d="M74.0002 80.4C73.3002 80.4 72.7002 81 72.7002 81.7C72.7002 82.4 73.3002 83 74.0002 83C74.7002 83 75.2002 82.4 75.2002 81.7C75.2002 81 74.7002 80.4 74.0002 80.4Z" fill="white" fill-opacity="0.1"/>
<path d="M30.0002 0C29.3002 0 28.7002 0.600003 28.7002 1.3C28.7002 2 29.3002 2.59999 30.0002 2.59999C30.7002 2.59999 31.3002 2 31.3002 1.3C31.3002 0.600003 30.7002 0 30.0002 0Z" fill="white" fill-opacity="0.1"/>
<path d="M45.1998 35C44.4998 35 43.8999 35.5 43.8999 36.3C43.8999 37 44.4998 37.5 45.1998 37.5C45.8998 37.5 46.3999 37 46.3999 36.3C46.3999 35.5 45.8998 35 45.1998 35Z" fill="white" fill-opacity="0.1"/>
<path d="M59.5999 35C58.8999 35 58.2998 35.5 58.2998 36.3C58.2998 37 58.8999 37.5 59.5999 37.5C60.2999 37.5 60.7998 37 60.7998 36.3C60.7998 35.5 60.2999 35 59.5999 35Z" fill="white" fill-opacity="0.1"/>
<path d="M74.0002 35C73.3002 35 72.7002 35.5 72.7002 36.3C72.7002 37 73.3002 37.5 74.0002 37.5C74.7002 37.5 75.2002 37 75.2002 36.3C75.2002 35.5 74.7002 35 74.0002 35Z" fill="white" fill-opacity="0.1"/>
<path d="M88.3 35C87.6 35 87.1001 35.5 87.1001 36.3C87.1001 37 87.6 37.5 88.3 37.5C89 37.5 89.6001 37 89.6001 36.3C89.6001 35.5 89 35 88.3 35Z" fill="white" fill-opacity="0.1"/>
<path d="M102.7 35C102 35 101.5 35.5 101.5 36.3C101.5 37 102 37.5 102.7 37.5C103.4 37.5 104 37 104 36.3C104 35.5 103.4 35 102.7 35Z" fill="white" fill-opacity="0.1"/>
</svg>
