<svg width="24" height="36" viewBox="0 0 24 36" fill="none" xmlns="http://www.w3.org/2000/svg">
  <path fill-rule="evenodd" clip-rule="evenodd"
    d="M10.6564 36C10.6169 36 10.5775 35.9951 10.5381 35.9859C10.3348 35.9367 10.1926 35.7694 10.1926 35.5782V21.5024H0.464127C0.297155 21.5024 0.142552 21.4208 0.0606124 21.2886C-0.0221005 21.1565 -0.0197816 20.9948 0.0652503 20.864L13.6294 0.205804C13.7361 0.0427036 13.9494 -0.0353315 14.1504 0.0152859C14.3522 0.0659032 14.4913 0.231816 14.4913 0.421631V14.5544H23.5356C23.701 14.5544 23.8541 14.6346 23.9368 14.7646C24.0203 14.894 24.0211 15.0543 23.9391 15.185L11.0599 35.7863C10.9764 35.9206 10.8202 36 10.6564 36Z"
    fill="#2B4DFF" />
</svg>