<svg width="36" height="36" viewBox="0 0 36 36" fill="none" xmlns="http://www.w3.org/2000/svg">
<g clip-path="url(#clip0_455_12898)">
<mask id="mask0_455_12898" style="mask-type:luminance" maskUnits="userSpaceOnUse" x="0" y="0" width="36" height="36">
<path d="M36 0H0V36H36V0Z" fill="white"/>
<path d="M31.9681 21.8425C29.7827 26.5987 24.9899 29.6719 19.7579 29.6719C18.6641 29.6719 17.5845 29.5398 16.5389 29.2827L14.2617 31.5298C16.0121 32.159 17.8678 32.4844 19.7579 32.4844C22.9257 32.4844 25.9959 31.5716 28.6365 29.8449C31.2081 28.1633 33.2439 25.8021 34.5237 23.0168L31.9681 21.8425Z" fill="white"/>
<path d="M6.75717 19.6218C6.47374 18.5274 6.32812 17.3936 6.32812 16.2422H3.51562C3.51562 18.1728 3.85327 20.0631 4.50682 21.8424L6.75717 19.6218Z" fill="white"/>
</mask>
<g mask="url(#mask0_455_12898)">
<mask id="mask1_455_12898" style="mask-type:luminance" maskUnits="userSpaceOnUse" x="0" y="0" width="36" height="36">
<path d="M0 3.8147e-06H36V36H0V3.8147e-06Z" fill="white"/>
</mask>
<g mask="url(#mask1_455_12898)">
<path d="M26.8535 13.0594L23.1837 16.7114C22.6656 17.2298 21.9858 17.4891 21.3065 17.4891C20.6272 17.4891 19.9475 17.2298 19.4293 16.7114C18.3922 15.6745 18.3922 13.9935 19.4293 12.9566L23.0812 9.28703C22.0889 8.82487 21.0043 8.55937 19.8374 8.55937C15.5608 8.55937 12.0937 12.0263 12.0937 16.3031C12.0937 17.4699 12.3591 18.5723 12.8214 19.5646L2.18408 30.0613C1.14697 31.0982 1.14697 32.7791 2.18408 33.816C2.70221 34.3344 3.382 34.5936 4.06121 34.5936C4.74057 34.5936 5.42028 34.3344 5.93842 33.816L16.5759 23.3192C17.5682 23.7814 18.6706 24.0468 19.8374 24.0468C24.1142 24.0468 27.5812 20.5799 27.5812 16.3031C27.5812 15.1363 27.3157 14.0517 26.8535 13.0594Z" stroke="#2B4DFF" stroke-width="2.2" stroke-miterlimit="10"/>
<path d="M31.9681 21.8425C29.7827 26.5987 24.9899 29.6719 19.7579 29.6719C18.6641 29.6719 17.5845 29.5398 16.5389 29.2827L14.2617 31.5298C16.0121 32.159 17.8678 32.4844 19.7579 32.4844C22.9257 32.4844 25.9959 31.5716 28.6365 29.8449C31.2081 28.1633 33.2439 25.8021 34.5237 23.0168L31.9681 21.8425Z" fill="#2B4DFF"/>
<path d="M6.75717 19.6218C6.47374 18.5274 6.32812 17.3936 6.32812 16.2422H3.51562C3.51562 18.1728 3.85327 20.0631 4.50682 21.8424L6.75717 19.6218Z" fill="#2B4DFF"/>
<path d="M6.17578 10.2656C8.47472 5.04837 13.6914 1.40625 19.7587 1.40625C27.9524 1.40625 34.5947 8.04853 34.5947 16.2422" stroke="#2B4DFF" stroke-width="2.2" stroke-miterlimit="10"/>
<path d="M10.4766 10.4766H4.85156V4.85156" stroke="#2B4DFF" stroke-width="2.2" stroke-miterlimit="10"/>
<path d="M28.9688 22.0078H34.5937V27.6328" stroke="#2B4DFF" stroke-width="2.2" stroke-miterlimit="10"/>
</g>
</g>
</g>
<defs>
<clipPath id="clip0_455_12898">
<rect width="36" height="36" fill="white"/>
</clipPath>
</defs>
</svg>
