<svg width="25" height="25" viewBox="0 0 25 25" fill="none" xmlns="http://www.w3.org/2000/svg">
<rect width="25" height="25" fill="url(#paint0_linear_wechat)" fill-opacity="0.02"/>
<path fill-rule="evenodd" clip-rule="evenodd" d="M9.653 4.5C5.658 4.5 2.5 7.238 2.5 10.65C2.5 12.61 3.552 14.35 5.208 15.487C5.352 15.585 5.443 15.75 5.412 15.926L5.028 17.204C5.005 17.28 5.001 17.359 5.05 17.423C5.111 17.503 5.222 17.53 5.311 17.485L6.784 16.647C6.907 16.577 7.049 16.559 7.183 16.598C7.965 16.822 8.79 16.943 9.653 16.943C9.836 16.943 10.017 16.937 10.196 16.926C10.093 16.529 10.037 16.117 10.037 15.694C10.037 12.906 12.503 10.65 15.542 10.65C15.723 10.65 15.902 10.658 16.078 10.673C15.677 7.209 12.977 4.5 9.653 4.5ZM7.417 8.813C6.888 8.813 6.458 8.393 6.458 7.875C6.458 7.357 6.888 6.938 7.417 6.938C7.945 6.938 8.375 7.357 8.375 7.875C8.375 8.393 7.945 8.813 7.417 8.813ZM11.875 8.813C11.347 8.813 10.917 8.393 10.917 7.875C10.917 7.357 11.347 6.938 11.875 6.938C12.404 6.938 12.833 7.357 12.833 7.875C12.833 8.393 12.404 8.813 11.875 8.813Z" fill="#F9FBFF"/>
<path fill-rule="evenodd" clip-rule="evenodd" d="M15.542 11.75C12.892 11.75 10.792 13.622 10.792 15.844C10.792 18.066 12.892 19.938 15.542 19.938C16.213 19.938 16.855 19.837 17.44 19.652C17.549 19.618 17.667 19.633 17.767 19.69L18.919 20.35C18.992 20.392 19.083 20.369 19.133 20.301C19.171 20.249 19.174 20.183 19.155 20.121L18.859 19.148C18.833 19.005 18.909 18.865 19.032 18.786C20.264 17.79 21 16.396 21 14.844C21 13.622 18.192 11.75 15.542 11.75ZM13.75 15.219C13.336 15.219 13 14.883 13 14.469C13 14.055 13.336 13.719 13.75 13.719C14.164 13.719 14.5 14.055 14.5 14.469C14.5 14.883 14.164 15.219 13.75 15.219ZM17.333 15.219C16.919 15.219 16.583 14.883 16.583 14.469C16.583 14.055 16.919 13.719 17.333 13.719C17.747 13.719 18.083 14.055 18.083 14.469C18.083 14.883 17.747 15.219 17.333 15.219Z" fill="#F9FBFF"/>
<defs>
<linearGradient id="paint0_linear_wechat" x1="12.5" y1="0" x2="12.5" y2="25" gradientUnits="userSpaceOnUse">
<stop stop-color="white"/>
<stop offset="1" stop-color="white" stop-opacity="0"/>
</linearGradient>
</defs>
</svg>
